<mxfile host="app.diagrams.net" modified="2023-07-18T02:15:59.581Z" agent="Mozilla/5.0 (Linux; Android 10; K) AppleWebKit/537.36 (KHTML, like Gecko) Chrome/114.0.0.0 Safari/537.36" version="21.6.2" etag="sFFNu28EbdBgVdoLmGlY" type="github">
  <diagram name="Halaman-1" id="nuiSfRS71nD0shJb9EcE">
    <mxGraphModel>
      <root>
        <mxCell id="0" />
        <mxCell id="1" parent="0" />
      </root>
    </mxGraphModel>
  </diagram>
</mxfile>
